<?xml version="1.0" encoding="utf-8"?>
<!-- Generator: Adobe Illustrator 22.1.0, SVG Export Plug-In . SVG Version: 6.00 Build 0)  -->
<svg version="1.1" xmlns="http://www.w3.org/2000/svg" xmlns:xlink="http://www.w3.org/1999/xlink" x="0px" y="0px"
	 viewBox="0 0 1400 980" style="enable-background:new 0 0 1400 980;" xml:space="preserve">
<style type="text/css">
	.st0{fill:#54D3F0;}
	.st1{fill:#3399AA;}
	.st2{fill:#A1F2FF;}
	.st3{fill:#FCD96A;}
	.st4{fill:#FF9D45;}
	.st5{fill:#FFFFFF;}
	.st6{fill:#440235;}
	.st7{fill:#8889C2;}
	.st8{fill:#B3B7FF;}
	.st9{fill:#DCE7FD;}
	.st10{opacity:0.42;}
	.st11{fill:#A3A7E5;}
	.st12{fill:#7E94B7;}
	.st13{fill:#EB6145;}
	.st14{fill:#A3A3A3;}
	.st15{fill:#8E3972;}
	.st16{fill:#39475F;}
	.st17{fill:url(#SVGID_1_);}
	.st18{fill:#F97DCB;}
	.st19{fill:url(#SVGID_2_);}
</style>
<g id="Background">
	<rect x="0" class="st0" width="1400" height="980"/>
	<rect y="919.3" class="st1" width="888.9" height="24.6"/>
</g>
<g id="object">
	<g>
		<path class="st2" d="M685,925.3c9-0.3,18.8-0.9,25.5-6.9c14.5-13.1,2.4-36.8-10.1-51.9c-24.3-29.4-48.8-59-78.7-82.7
			c-28-22.2-61.4-40-79.1-71c-8.6-15.2-12.8-32.5-20.5-48.2c-22.7-46.3-72.9-72.6-122.3-87.5c-27.3-8.2-57.4-15.2-75.4-37.4
			c-9.8-12.1-14.7-27.3-19.7-42c-12.4-36.6-29.1-75.8-63.4-93.7c-19.2-10-41.4-11.9-61.8-19C103.1,358.4,67.3,265.4,0,224.2v703.1
			h615.4C638.6,927.3,661.8,926.1,685,925.3z"/>
		<path class="st3" d="M1400,0h-362.1c-5.1,5.6-9.7,11.5-13.9,17.9C999.8,55,993.6,104,960.6,133.5c-35.5,31.7-92.9,32-124.1,68
			c-25.1,29-25.1,72.4-45.9,104.6c-19,29.6-52.5,45.8-82.8,63.7s-61,42.6-66.7,77.3c-7.4,44.5,28.5,83,47.7,123.8
			c18.4,39,25.8,88.6,63.5,109.4c24.8,13.7,58.9,11.9,76.6,34.1c8.1,10.2,10.9,23.7,12.7,36.6c3.5,24.8,4.8,50.4,14,73.8
			c11.6,29.5,34.7,52.6,57.2,74.9c27.1,26.9,54.3,53.9,82.1,80.2H1400V0z"/>
		<path class="st4" d="M815.6,442.9c13.3-27.4,18-58.1,26.8-87.3s22.9-58.8,48.7-75.1c15.2-9.6,33.4-13.9,48.2-24
			c48-32.8,45.3-113.4,95.9-141.9c40.2-22.6,92.5,0.3,135.9-15.1c33-11.7,54.3-42.9,81.3-65.2c19.2-16,42-27.7,66.1-34.3h-280.6
			c-5.1,5.6-9.7,11.5-13.9,17.9C999.8,55,993.6,104,960.6,133.5c-35.5,31.7-92.9,32-124.1,68c-25.1,29-25.1,72.4-45.9,104.6
			c-19,29.6-52.5,45.8-82.8,63.7s-61,42.6-66.7,77.3c-6.5,39.2,20.5,73.7,40.2,109.2C735.9,529.5,789.5,496.8,815.6,442.9z"/>
		<path class="st4" d="M1002,917.7c-17.7-25.3-23.6-62.1-51.9-74.4c-9.2-4-19.6-4.6-28.8-8.4c-18.7-7.7-29.8-27.3-35.6-46.8
			c-5.8-19.4-7.7-40-15.3-58.8c-11.5-28.3-34.6-49.9-57.1-70.6c-13.7-12.6-27.3-25.1-41-37.7c-14.9-13.7-29.9-27.4-47.3-37.6
			c-11.8-6.9-24.4-11.9-37.4-15.5c0.5,1,1,2,1.5,3c18.4,39,25.8,88.6,63.5,109.4c24.8,13.7,58.9,11.9,76.6,34.1
			c8.1,10.2,10.9,23.7,12.7,36.6c3.5,24.8,4.8,50.4,14,73.8c11.6,29.5,34.7,52.6,57.2,74.9c27.1,26.9,54.3,53.9,82.1,80.2h113.3
			C1069.7,962.4,1026,951.9,1002,917.7z"/>
		<path class="st5" d="M1321.6,315.2c-1.8-10.4-11.6-17.4-22-15.7c-8.1,1.4-14.1,7.7-15.6,15.3h-110.3v64.7h-79.8v70.6H903.7V297.9
			h110.5v-77.3h202.7c1.7,8.9,9.4,15.6,18.8,15.6c10.5,0,19.1-8.6,19.1-19.1s-8.6-19.1-19.1-19.1c-9.3,0-17.1,6.7-18.8,15.6h-202.7
			v-63.9H1229c1.7,8.9,9.4,15.6,18.8,15.6c10.5,0,19.1-8.6,19.1-19.1s-8.6-19.1-19.1-19.1c-9.3,0-17.1,6.7-18.8,15.6h-221.9v148.3
			H896.7v159.2h-87.8v7h38.3v111.1h59.1v74.4h74.6v170.2h66.9v109.9h170.6c0.9,4.9,3.6,9.2,7.7,12.1c3.3,2.3,7.1,3.5,11,3.5
			c1.1,0,2.1-0.1,3.2-0.3c10.4-1.8,17.4-11.6,15.7-22c-0.8-5-3.6-9.4-7.8-12.4c-4.2-3-9.2-4.1-14.3-3.3c-8.1,1.4-14.1,7.7-15.6,15.3
			h-163.6V812.9h45c1.7,9.1,9.7,15.6,18.8,15.6c1.1,0,2.1-0.1,3.2-0.3c5-0.8,9.4-3.6,12.4-7.8s4.1-9.2,3.3-14.3
			c-1.8-10.4-11.6-17.4-22-15.7c-8.1,1.4-14.1,7.7-15.6,15.3h-45h-3.5h-63.4V642.6h171.6v184.2h89c0.9,4.9,3.6,9.2,7.7,12.1
			c3.3,2.3,7.1,3.5,11,3.5c1.1,0,2.1-0.1,3.2-0.3c10.4-1.8,17.4-11.6,15.7-22c-1.8-10.4-11.6-17.4-22-15.7
			c-8.1,1.4-14.1,7.7-15.6,15.3h-82V678.1h76.3c0.9,4.9,3.6,9.2,7.7,12.1c3.3,2.3,7.1,3.5,11,3.5c1.1,0,2.1-0.1,3.2-0.3
			c5-0.8,9.4-3.6,12.4-7.8c3-4.2,4.1-9.2,3.3-14.3c-1.8-10.4-11.6-17.4-22-15.7c-5,0.8-9.4,3.6-12.4,7.8c-1.6,2.3-2.7,4.9-3.2,7.6
			h-76.3v-35.5H913.3v-67.4h68c1.7,9.1,9.7,15.6,18.8,15.6c1.1,0,2.1-0.1,3.2-0.3c10.4-1.8,17.4-11.6,15.7-22
			c-0.8-5-3.6-9.4-7.8-12.4c-4.2-3-9.2-4.1-14.3-3.3c-8.1,1.4-14.1,7.7-15.6,15.3h-127V457.1h46h3.5h197.2v-70.6h72.8V440h86.3
			c0,0.4,0.1,0.8,0.1,1.2c1.6,9.3,9.7,15.9,18.8,15.9c1.1,0,2.1-0.1,3.2-0.3c5-0.8,9.4-3.6,12.4-7.8c3-4.2,4.1-9.2,3.3-14.3
			s-3.6-9.4-7.8-12.4c-4.2-3-9.2-4.1-14.3-3.3c-5,0.8-9.4,3.6-12.4,7.8c-1.3,1.9-2.3,3.9-2.8,6h-79.9v-46.4h46.5
			c0.9,4.9,3.6,9.2,7.7,12.1c3.3,2.3,7.1,3.5,11,3.5c1.1,0,2.1-0.1,3.2-0.3c5-0.8,9.4-3.6,12.4-7.8c3-4.2,4.1-9.2,3.3-14.3
			c-1.8-10.4-11.6-17.4-22-15.7c-8.1,1.4-14.1,7.7-15.6,15.3h-46.5v-57.7H1284c0.9,4.9,3.6,9.2,7.7,12.1c3.3,2.3,7.1,3.5,11,3.5
			c1.1,0,2.1-0.1,3.2-0.3c5-0.8,9.4-3.6,12.4-7.8C1321.3,325.2,1322.4,320.2,1321.6,315.2z M1235.6,205c6.7,0,12.1,5.4,12.1,12.1
			c0,6.7-5.4,12.1-12.1,12.1s-12.1-5.4-12.1-12.1C1223.5,210.4,1228.9,205,1235.6,205z M1247.8,134c6.7,0,12.1,5.4,12.1,12.1
			c0,6.7-5.4,12.1-12.1,12.1s-12.1-5.4-12.1-12.1C1235.7,139.5,1241.1,134,1247.8,134z M1235.1,907.4c0.7-0.1,1.4-0.2,2-0.2
			c2.5,0,4.9,0.8,7,2.2c2.6,1.9,4.4,4.7,4.9,7.9c1.1,6.6-3.3,12.8-9.9,14c-3.2,0.5-6.4-0.2-9-2.1s-4.4-4.7-4.9-7.9
			C1224.1,914.8,1228.6,908.5,1235.1,907.4z M1116.6,797.4c0.7-0.1,1.4-0.2,2-0.2c5.8,0,10.9,4.2,11.9,10.1c0.5,3.2-0.2,6.4-2.1,9
			c-1.9,2.6-4.7,4.4-7.9,4.9c-6.6,1.1-12.8-3.3-14-9.9C1105.5,804.8,1110,798.5,1116.6,797.4z M1265.3,811.4c0.7-0.1,1.4-0.2,2-0.2
			c5.8,0,10.9,4.2,11.9,10.1c1.1,6.6-3.3,12.8-9.9,14c-3.2,0.5-6.4-0.2-9-2.1c-2.6-1.9-4.4-4.7-4.9-7.9
			C1254.2,818.7,1258.7,812.5,1265.3,811.4z M1251.8,667.6c1.9-2.6,4.7-4.4,7.9-4.9c0.7-0.1,1.4-0.2,2-0.2c5.8,0,10.9,4.2,11.9,10.1
			c0.5,3.2-0.2,6.4-2.1,9c-1.9,2.6-4.7,4.4-7.9,4.9c-3.2,0.5-6.4-0.2-9-2.1s-4.4-4.7-4.9-7.9
			C1249.1,673.4,1249.9,670.2,1251.8,667.6z M998,552.8c0.7-0.1,1.4-0.2,2-0.2c2.5,0,4.9,0.8,7,2.2c2.6,1.9,4.4,4.7,4.9,7.9
			c1.1,6.6-3.3,12.8-9.9,14c-6.6,1.1-12.8-3.3-14-9.9C986.9,560.1,991.4,553.9,998,552.8z M1269.1,431c1.9-2.6,4.7-4.4,7.9-4.9
			c0.7-0.1,1.4-0.2,2-0.2c2.5,0,4.9,0.8,7,2.2c2.6,1.9,4.4,4.7,4.9,7.9s-0.2,6.4-2.1,9s-4.7,4.4-7.9,4.9c-6.6,1.1-12.8-3.3-14-9.9
			C1266.5,436.8,1267.3,433.6,1269.1,431z M1244,371.1c0.7-0.1,1.4-0.2,2-0.2c5.8,0,10.9,4.2,11.9,10.1c0.5,3.2-0.2,6.4-2.1,9
			s-4.7,4.4-7.9,4.9c-3.2,0.5-6.4-0.2-9-2.1c-2.6-1.9-4.4-4.7-4.9-7.9C1233,378.5,1237.4,372.2,1244,371.1z M1312.6,325.4
			c-1.9,2.6-4.7,4.4-7.9,4.9c-3.2,0.5-6.4-0.2-9-2.1c-2.6-1.9-4.4-4.7-4.9-7.9c-1.1-6.6,3.3-12.8,9.9-14c0.7-0.1,1.4-0.2,2-0.2
			c5.8,0,10.9,4.2,11.9,10.1C1315.2,319.5,1314.5,322.7,1312.6,325.4z"/>
		<g>
			<g>
				<g>
					<polygon class="st6" points="799.5,527.4 668.9,548.5 668.9,376.5 782.3,376.5 					"/>
					<g>
						<g>
							<g>
								<circle class="st7" cx="715.8" cy="327.3" r="94.6"/>
								<path class="st8" d="M747.3,250.7h-40.8c-6.7,0-12.2,5.5-12.2,12.2v50.8c0,6.7,5.5,12.2,12.2,12.2h40.8
									c6.7,0,12.2-5.5,12.2-12.2v-50.8C759.4,256.2,754,250.7,747.3,250.7z"/>
								<g>
									<path class="st5" d="M713.9,296.6l-3.7,11.2h-4.8l12.1-35.7h5.6l12.2,35.7h-4.9l-3.8-11.2H713.9z M725.6,293l-3.5-10.3
										c-0.8-2.3-1.3-4.4-1.9-6.5h-0.1c-0.5,2.1-1.1,4.3-1.8,6.5l-3.5,10.3H725.6z"/>
									<path class="st5" d="M745.1,272.1v35.7h-4.6v-35.7H745.1z"/>
								</g>
								<path class="st5" d="M674.2,242.3c0,0-77.5,34.4-82.7,73.7s0,70.9,0,70.9s-32.4,31-28.9,35c3.4,4,17.8,22.4,17.8,22.4
									l18.8,78.7h24l65.6-17.7l61-24.4l17-71.4c0,0,16.9-57-5.1-70.7c-22-13.7-78.1,15.2-90.6-2.6
									C658.7,318.3,638.7,287.3,674.2,242.3z"/>
								<path class="st9" d="M761.7,338.7c-8.7-5.4-22.8-4.2-37.3-1.8c-13.3,7-26.8,15-34,28.1c-3,5.5-4.7,11.6-6.3,17.7
									c-3.2,11.5-6.3,23-9.5,34.4c-1.3,4.9-2.7,9.9-5.5,14.2c-3.2,4.9-8,8.5-12.9,11.8c-6.1,4.1-12.6,7.9-17.1,13.7
									c-3.9,5-6,11.1-8,17.1c-5.3,16.2-10.2,32.6-14.5,49.1h6.6l65.6-17.7l61-24.4l17-71.4C766.7,409.4,783.6,352.4,761.7,338.7z"
									/>
								<path class="st6" d="M644.1,423.6c0.7,0.6,1.5,1.2,2.3,0.9c0.7-0.2,1-0.9,1.4-1.5c10.9-22.2,24.6-43,40.2-62.3h-98.7
									c0.4,13.8,1.7,23.2,2.1,25.6c8.1,2.3,15.8,6.5,22.7,11.5C624.9,405.4,634.1,415,644.1,423.6z"/>
								<g>
									<path class="st6" d="M761.7,338.7c-22-13.7-78.1,15.2-90.6-2.6c-12.4-17.8-32.4-48.8,3.1-93.8c0,0-4.6,2-11.5,5.6
										c-24.3,40.5-10.1,78.1,1.2,94.3c12.4,17.8,68.6-11.1,90.6,2.6c18.8,11.7,9.9,52.9,7,64.5l6.4-3.1
										C767.8,406.3,783.6,352.4,761.7,338.7z"/>
								</g>
								<g class="st10">
									<path class="st11" d="M691,266.4c3.4,5.5,8.9,9.3,14.3,12.8c14.5,9.3,30.7,17.2,47.9,17.8c3.6,0.1,7.5-0.2,10-2.7
										c2.3-2.2,2.9-5.8,2.3-8.9c-0.6-3.1-2.2-6-3.8-8.7c-6.5-11.2-13.6-22.4-24.1-30c-9.9-7.2-23.7-10.2-35.6-6.5
										C690.3,244,683.9,255.2,691,266.4z"/>
								</g>
								<g>
									
										<ellipse transform="matrix(0.2298 -0.9732 0.9732 0.2298 187.4874 1002.1314)" class="st6" cx="726.9" cy="382.6" rx="32.5" ry="32.5"/>
								</g>
								<g>
									
										<ellipse transform="matrix(0.7071 -0.7071 0.7071 0.7071 -56.1502 629.6725)" class="st9" cx="732" cy="382.6" rx="21.9" ry="21.9"/>
								</g>
								<g>
									<circle class="st6" cx="725.7" cy="382.6" r="18.9"/>
								</g>
							</g>
							<g>
								<g>
									<g>
										<path class="st5" d="M777.2,297.4h-26.3c-0.6,0-1.1-0.5-1.1-1.1c0-0.6,0.5-1.1,1.1-1.1h26.3c0.6,0,1.1,0.5,1.1,1.1
											C778.3,296.9,777.8,297.4,777.2,297.4z"/>
									</g>
								</g>
								<g>
									<g>
										<path class="st5" d="M777.2,290.9h-26.3c-0.6,0-1.1-0.5-1.1-1.1c0-0.6,0.5-1.1,1.1-1.1h26.3c0.6,0,1.1,0.5,1.1,1.1
											C778.3,290.4,777.8,290.9,777.2,290.9z"/>
									</g>
								</g>
								<g>
									<g>
										<path class="st5" d="M777.2,284.4h-26.3c-0.6,0-1.1-0.5-1.1-1.1c0-0.6,0.5-1.1,1.1-1.1h26.3c0.6,0,1.1,0.5,1.1,1.1
											C778.3,283.9,777.8,284.4,777.2,284.4z"/>
									</g>
								</g>
							</g>
							<g>
								<g>
									<g>
										<path class="st5" d="M735.6,238.9v26.3c0,0.6-0.5,1.1-1.1,1.1s-1.1-0.5-1.1-1.1v-26.3c0-0.6,0.5-1.1,1.1-1.1
											S735.6,238.2,735.6,238.9z"/>
									</g>
								</g>
								<g>
									<g>
										<path class="st5" d="M729.1,238.9v26.3c0,0.6-0.5,1.1-1.1,1.1c-0.6,0-1.1-0.5-1.1-1.1v-26.3c0-0.6,0.5-1.1,1.1-1.1
											C728.6,237.7,729.1,238.2,729.1,238.9z"/>
									</g>
								</g>
								<g>
									<g>
										<path class="st5" d="M722.6,238.9v26.3c0,0.6-0.5,1.1-1.1,1.1c-0.6,0-1.1-0.5-1.1-1.1v-26.3c0-0.6,0.5-1.1,1.1-1.1
											C722.1,237.7,722.6,238.2,722.6,238.9z"/>
									</g>
								</g>
							</g>
							<g>
								<g>
									<g>
										<path class="st5" d="M735.6,317.3v14.2c0,0.6-0.5,1.1-1.1,1.1s-1.1-0.5-1.1-1.1v-14.2c0-0.6,0.5-1.1,1.1-1.1
											S735.6,316.7,735.6,317.3z"/>
									</g>
								</g>
								<g>
									<g>
										<path class="st5" d="M729.1,317.3v14.2c0,0.6-0.5,1.1-1.1,1.1c-0.6,0-1.1-0.5-1.1-1.1v-14.2c0-0.6,0.5-1.1,1.1-1.1
											C728.6,316.2,729.1,316.7,729.1,317.3z"/>
									</g>
								</g>
								<g>
									<g>
										<path class="st5" d="M722.6,317.3v14.2c0,0.6-0.5,1.1-1.1,1.1c-0.6,0-1.1-0.5-1.1-1.1v-14.2c0-0.6,0.5-1.1,1.1-1.1
											C722.1,316.2,722.6,316.7,722.6,317.3z"/>
									</g>
								</g>
							</g>
							<g>
								<g>
									<g>
										<path class="st5" d="M699.1,297.4h-26.3c-0.6,0-1.1-0.5-1.1-1.1c0-0.6,0.5-1.1,1.1-1.1h26.3c0.6,0,1.1,0.5,1.1,1.1
											C700.2,296.9,699.7,297.4,699.1,297.4z"/>
									</g>
								</g>
								<g>
									<g>
										<path class="st5" d="M699.1,290.9h-26.3c-0.6,0-1.1-0.5-1.1-1.1c0-0.6,0.5-1.1,1.1-1.1h26.3c0.6,0,1.1,0.5,1.1,1.1
											C700.2,290.4,699.7,290.9,699.1,290.9z"/>
									</g>
								</g>
								<g>
									<g>
										<path class="st5" d="M699.1,284.4h-26.3c-0.6,0-1.1-0.5-1.1-1.1c0-0.6,0.5-1.1,1.1-1.1h26.3c0.6,0,1.1,0.5,1.1,1.1
											C700.2,283.9,699.7,284.4,699.1,284.4z"/>
									</g>
								</g>
							</g>
							<g>
								<path class="st5" d="M782.4,331H764c-0.7,0-1.3-0.6-1.3-1.3s0.6-1.3,1.3-1.3h17v-19.9c0-0.7,0.6-1.3,1.3-1.3h23.5
									c0.7,0,1.3,0.6,1.3,1.3s-0.6,1.3-1.3,1.3h-22.2v19.9C783.7,330.4,783.1,331,782.4,331z"/>
							</g>
							<g>
								<path class="st5" d="M784.9,356.1c-0.7,0-1.3-0.6-1.3-1.3V340c0-0.7,0.6-1.3,1.3-1.3h6.6V323h-9.2c-0.7,0-1.3-0.6-1.3-1.3
									s0.6-1.3,1.3-1.3h10.5c0.7,0,1.3,0.6,1.3,1.3V340c0,0.7-0.6,1.3-1.3,1.3h-6.6v13.5C786.3,355.5,785.7,356.1,784.9,356.1z"/>
							</g>
							<g>
								<path class="st5" d="M799.5,341.3h-6.6c-0.7,0-1.3-0.6-1.3-1.3s0.6-1.3,1.3-1.3h6.6c0.7,0,1.3,0.6,1.3,1.3
									S800.3,341.3,799.5,341.3z"/>
							</g>
							<g>
								<path class="st5" d="M682.9,267.6h-11.2c-0.7,0-1.3-0.6-1.3-1.3c0-0.7,0.6-1.3,1.3-1.3h9.9v-11.6h-7.4
									c-0.7,0-1.3-0.6-1.3-1.3c0-0.7,0.6-1.3,1.3-1.3h8.7c0.7,0,1.3,0.6,1.3,1.3v14.3C684.3,267,683.7,267.6,682.9,267.6z"/>
							</g>
							<g>
								<path class="st5" d="M694.3,253.4h-11.3c-0.7,0-1.3-0.6-1.3-1.3c0-0.7,0.6-1.3,1.3-1.3h10v-8.3c0-0.7,0.6-1.3,1.3-1.3
									s1.3,0.6,1.3,1.3v9.7C695.6,252.7,695,253.4,694.3,253.4z"/>
							</g>
						</g>
					</g>
					<polygon class="st9" points="800.9,495.3 636.9,549.1 636.1,575.1 808.1,570.6 					"/>
					<polygon class="st7" points="802.9,504.1 646.3,554.6 643.4,575.1 808.9,562.8 					"/>
					<path class="st9" d="M802.9,504.1c1.2,5.1-100.5,39.8-100.5,39.8l-1.6,23.4l108.1-4.5L802.9,504.1z"/>
				</g>
				<g>
					<ellipse class="st3" cx="609.1" cy="375.3" rx="4.4" ry="9.1"/>
					<ellipse class="st3" cx="595.7" cy="373.6" rx="3.5" ry="7.2"/>
					<ellipse class="st3" cx="627" cy="378" rx="5.7" ry="11.9"/>
					<ellipse class="st3" cx="649.9" cy="380.8" rx="7.1" ry="14.7"/>
				</g>
			</g>
			<path class="st9" d="M653.1,568.6c40.4-9.7,110.2-22.1,155.7-5.9l41.8,63.7v163.9L841.5,928H536l5.5-296.3
				c0.7-7.9,4.3-15.4,10.1-20.8C571.8,592.4,637.6,572.3,653.1,568.6z"/>
			<path class="st7" d="M716.4,623.9H574.3c-5.6,0-10.1,4.2-10.1,9.5v264.8c0,5.2,4.5,9.5,10.1,9.5h142.1c5.6,0,10.1-4.2,10.1-9.5
				V633.3C726.6,628.1,722,623.9,716.4,623.9z"/>
			<path class="st12" d="M764.2,640.2c3.8-2.3,8-4,12.2-5.6c21.7-8.2,43.9-14.9,66.5-20.1l4.1,6.3l-38.1-58.1
				c-37.1-13.2-90.1-7.5-130.4,0.3c16,7.9,30,20.2,43,32.7C736.4,610,750.6,624.8,764.2,640.2z"/>
			<path class="st6" d="M776.4,634.6c-5.6,2.1-11.2,4.4-15.8,8.1c-5,4-8.5,9.4-11.9,14.7c-23.5,36.8-43.3,76-59.1,116.7
				c-3.2,8.4-7.1,17.7-15.4,21.2c-4.5,1.9-9.6,1.7-14.4,1.4c-30.3-1.5-90.9-4.1-121.2-5.6L536,928h305.5l9.2-137.6V626.5l-7.8-12
				C820.3,619.7,798,626.4,776.4,634.6z"/>
		</g>
		<g>
			<path class="st6" d="M711.2,623.9H569.1c-5.6,0-10.1,4.2-10.1,9.5v264.8c0,5.2,4.5,9.5,10.1,9.5h142.1c5.6,0,10.1-4.2,10.1-9.5
				V633.3C721.4,628.1,716.8,623.9,711.2,623.9z"/>
			<path class="st5" d="M702.7,631.7H577.6c-4.9,0-8.9,4-8.9,8.9v250.1c0,4.9,4,8.9,8.9,8.9h125.1c4.9,0,8.9-4,8.9-8.9V640.7
				C711.6,635.7,707.6,631.7,702.7,631.7z"/>
			<g>
				<path class="st13" d="M632.1,813c0,0.9-0.7,1.6-1.6,1.6c-0.9,0-1.6-0.7-1.6-1.6s0.7-1.6,1.6-1.6
					C631.4,811.4,632.1,812.1,632.1,813z"/>
				
					<ellipse transform="matrix(0.9721 -0.2347 0.2347 0.9721 -172.9647 172.3742)" class="st14" cx="637.8" cy="813" rx="1.6" ry="1.6"/>
				<path class="st14" d="M646.8,813c0,0.9-0.7,1.6-1.6,1.6c-0.9,0-1.6-0.7-1.6-1.6s0.7-1.6,1.6-1.6
					C646.1,811.4,646.8,812.1,646.8,813z"/>
			</g>
			<path class="st13" d="M661.5,869.7h-42.6c-3.6,0-6.5,2.9-6.5,6.5l0,0c0,3.6,2.9,6.5,6.5,6.5h42.6c3.6,0,6.5-2.9,6.5-6.5l0,0
				C668,872.6,665.1,869.7,661.5,869.7z"/>
		</g>
		<g>
			<g>
				<path class="st15" d="M554.3,764.3c-1.7-2.8-4-6.9-6.7-9.7c-2.1-11.9-4.3-32.5-5.1-34.7c-6.1-17-17.8-57.6-24.4-81
					c-2.8-9.9-17.1-8.8-18.5,1.4c-4.8,34.3,29.9,102.5,40.1,121.6c0.1,2.4-0.2,4.8-0.7,7.1c-0.3,1.5-0.8,3.3,0,4.6
					c0.1,0.2,0.2,0.3,0.4,0.4c0.4,0.2,0.8-0.1,1-0.4c0.3-0.3,0.5-0.8,0.6-1.2c0.1,1.2,0.3,2.4,0.7,3.5c0.3,1,1.3,2.2,2.1,1.4
					c0.2-0.2,0.3-0.4,0.3-0.6c0.2-1.4,0.3-2.8,0-4.2c0.2,1,1.1,4.3,1.5,5.2c0.6,1.6,2.9,1.4,3.2-0.3c0.3-1.7-0.6-5.7-1.1-7.3
					c0.6,1.7,1.3,3.3,2.1,4.9c0.6,1.3,2.6,0.8,2.6-0.6c0.1-1.2-0.1-2.4-0.4-3.6c-0.6-2.4-1.8-4.7-2.9-6.9c0.8,1.3,2,2.3,3.4,2.8
					c0.7,0.3,1.5,0,1.9-0.6C555,765.5,554.7,764.9,554.3,764.3z"/>
				<g>
					<g>
						<path class="st5" d="M519.4,919.7l-4.7-1.2c0,0-0.7-75.5-4.1-86.1c-3.4-10.6-16.2-74.4-16.2-74.4s26.8-2.7,31.5-7.5
							c3.8-3.9,24.4-67.7-8.5-118c-3.9-6-6.2-12.8-13.3-14c-17.4-2.9-49-4.5-62.2,17.5c-3.6,6-1.2,49.6,1.4,83
							c1.1,14.3-4.6,21-3.6,27.6c3.1,22,41.2,103.9,41.2,103.9l15.7,77.4h30.7C527.4,927.7,525.4,922.4,519.4,919.7z"/>
						<path class="st6" d="M526.2,747.5l-64.5,163.3h-19.8c0,0,8-60.9,13.4-77c5.3-16,14.9-82.8,25.6-87.4
							C491.6,741.9,518.6,750.9,526.2,747.5z"/>
						<path class="st6" d="M462.9,905.1l1.5,13.3c0,0,4.7,6.2,9.4,7c4.7,0.8,5.5,4.2,5.5,4.2h-26.6c0,0-11.6,0.3-11.7-3.8
							c-0.1-4.1,0.9-14.9,0.9-14.9S459.8,902.9,462.9,905.1z"/>
						<path class="st16" d="M491,736.2c-6.6-2.3-34.5-11.2-47.6-17.3c-2.9,11.7-4.5,21.7-3.6,27.6c3.1,22,41.2,103.9,41.2,103.9
							l15.7,77.4h30.7c0,0-2-5.3-7.9-8l-4.7-1.2c0,0-0.7-75.5-4.1-86.1c-3.4-10.6-16.2-74.4-16.2-74.4s32.9,13.4,35.7-19.9
							C530.2,736,501,739.7,491,736.2z"/>
						<path class="st16" d="M495,851.7c-7.8-19.9-31.2-79.9-36.5-91.2c-4-8.6-2.1-24.4-0.2-34.8c-5.7-2.5-11-5-15-6.8
							c-2.9,11.7-4.5,21.7-3.6,27.6c3.1,22,41.2,103.9,41.2,103.9l0,0C484.2,851,489.4,851.7,495,851.7z"/>
						<path class="st16" d="M519.3,919.7l-4.7-1.2c0,0,0,0,0-0.1c-5.4,0.6-10.9,0.8-16.3,0.6c-1.2-0.1-2.5-0.2-3.7-0.5l1.9,9.4h30.7
							C527.3,927.7,525.3,922.4,519.3,919.7z"/>
					</g>
					<g>
						<g>
							<path class="st18" d="M489.2,599.7c-0.4,0.6-7.7,17.3,6.2,25c13.8,7.7,26.3-16.1,15.5-28
								C500.1,584.7,494.5,590.8,489.2,599.7z"/>
							<path class="st18" d="M490.8,604.4c2.5,1.7,3.2,5.1,1.5,7.6c-1.7,2.5-5.1,3.2-7.6,1.5c-2.5-1.7-3.2-5.1-1.5-7.6
								c1.1-1.6,2.8-2.4,4.6-2.4C488.8,603.5,489.9,603.8,490.8,604.4z"/>
						</g>
					</g>
					<path class="st16" d="M487.8,603.5c0,0,6.7-1,4.9,7.9h3.5V600c0,0,21.1,5.2,24.4-1.9c0,0,3.9-3.8-4.7-9.9
						c-8.6-6.1-22.6-3.3-29,1.3c-6.4,4.6-1.8,14.7-1.8,14.7L487.8,603.5z"/>
				</g>
				<g>
					<path class="st5" d="M602.6,670.5l-87.4,0.1l-34.4-36.9c-5.9-6.3-16-6-21.5,0.7c-29.3,35.3,21.3,61.9,34.8,70.5
						c14.9,9.4,110.1-20.9,110.1-20.9L602.6,670.5z"/>
					<path class="st18" d="M602.6,670.5c0,0,25.7-8.3,24.3-6c-1.4,2.4-10.3,6-10.3,6s1.3,1.8,2.5,4.1c1.2,2.3,2.7,5.3,1.2,7.1
						c-1.5,1.9-6.2,4.4-6.6,3.3c-0.4-1.2-3-1.3-3-1.3s-3.1,2.1-6.6,0.2C600.8,682,598.1,673.3,602.6,670.5z"/>
					<path class="st15" d="M617.6,682.8c-0.8,0.4-1.7,0.6-2.6,0.5c-1.7-0.2-2.9-1.7-3.2-3.4c-0.7,0.4-1.2,1.1-1.2,1.9
						c-0.8-0.4-1.8-0.6-2.7-0.4c-0.8,0.1-1.5,0.5-2.3,0.6c-1,0.2-2.1,0-3.1,0.3c0.5,0.7,1.1,1.3,1.7,1.6c3.4,1.9,6.6-0.2,6.6-0.2
						s2.6,0.1,3,1.3c0.4,1.2,5-1.4,6.6-3.3c0.3-0.4,0.5-0.8,0.6-1.3C620.1,681.4,618.9,682.3,617.6,682.8z"/>
					<path class="st18" d="M602.6,670.5l-78.4,0.1c-3.3,5.8-5.4,12.3-5.9,19c-0.4,5.2,0.1,10.5,1.5,15.6c33.2-5,84.4-21.3,84.4-21.3
						L602.6,670.5z"/>
					<path class="st9" d="M504.7,693.8c-4.4-0.8-8.8-1.8-12.7-4c-3.6-2.1-6.6-5.2-9.5-8.2c-6.6-6.9-13.2-14-17.4-22.5
						c-3.4-6.9-5.1-14.5-8.1-21.6c-23.9,33.8,24.1,59.1,37.2,67.3c4,2.5,13.6,2.2,25.7,0.4c-0.9-3.1-1.4-6.3-1.6-9.5
						C513.7,695.3,509.2,694.6,504.7,693.8z"/>
					<path class="st15" d="M521.5,705c1-0.2,2-0.3,3-0.5c0.1,0,0.1,0,0.2,0c1-0.2,2.1-0.4,3.1-0.6c0.1,0,0.1,0,0.2,0
						c1.1-0.2,2.1-0.4,3.2-0.6c0,0,0.1,0,0.1,0c1.1-0.2,2.2-0.4,3.3-0.7c0,0,0.1,0,0.1,0c0.6-0.1,1.1-0.2,1.7-0.3c0,0,0,0,0,0
						c0.6-0.1,1.1-0.2,1.7-0.4c0,0,0,0,0.1,0c0.6-0.1,1.1-0.2,1.7-0.4c0,0,0,0,0,0c1.1-0.3,2.3-0.5,3.5-0.8c0,0,0.1,0,0.1,0
						c1.1-0.3,2.3-0.5,3.4-0.8c0,0,0.1,0,0.1,0c1.1-0.3,2.3-0.5,3.4-0.8c0,0,0.1,0,0.1,0c1.1-0.3,2.3-0.6,3.4-0.8c0,0,0.1,0,0.1,0
						c1.1-0.3,2.3-0.6,3.4-0.9c0,0,0.1,0,0.1,0c1.1-0.3,2.3-0.6,3.4-0.9c0,0,0,0,0,0c1.1-0.3,2.3-0.6,3.4-0.9c0,0,0,0,0,0
						c0.6-0.1,1.1-0.3,1.7-0.4c0,0,0,0,0,0c1.1-0.3,2.2-0.6,3.3-0.9c0,0,0,0,0,0c1.1-0.3,2.2-0.6,3.2-0.9c0,0,0.1,0,0.1,0
						c1-0.3,2.1-0.6,3.1-0.9c0,0,0.1,0,0.1,0c1-0.3,2-0.6,3-0.8c0,0,0.1,0,0.1,0c1-0.3,1.9-0.5,2.9-0.8c0,0,0.1,0,0.1,0
						c0.9-0.3,1.9-0.5,2.8-0.8c0,0,0,0,0,0c1.8-0.5,3.6-1,5.2-1.5c0,0,0,0,0,0c0.4-0.1,0.8-0.2,1.2-0.3c0,0,0,0,0,0
						c0.8-0.2,1.5-0.4,2.2-0.7c0,0,0.1,0,0.1,0c0.7-0.2,1.4-0.4,2-0.6c0,0,0,0,0,0c0.6-0.2,1.3-0.4,1.8-0.6c0,0,0.1,0,0.1,0
						c0.6-0.2,1.1-0.3,1.6-0.5c0,0,0.1,0,0.1,0c0.5-0.2,1-0.3,1.4-0.4c0,0,0,0,0,0c0.2-0.1,0.4-0.1,0.6-0.2c0,0,0,0,0.1,0
						c0.2-0.1,0.4-0.1,0.6-0.2c0,0,0,0,0,0c0.2-0.1,0.3-0.1,0.5-0.1c0,0,0,0,0.1,0c0.1,0,0.3-0.1,0.4-0.1c0,0,0,0,0,0
						c0.1,0,0.2-0.1,0.3-0.1c0,0,0,0,0,0c0.1,0,0.2-0.1,0.3-0.1c0,0,0,0,0,0c0.1,0,0.1,0,0.2-0.1c0,0,0,0,0,0c0.1,0,0.2-0.1,0.3-0.1
						c0,0,0,0,0,0L604,682c-23.1,6-45.8,13.6-69.5,14.3c-5.4,0.2-10.8-0.1-16.2-0.6c0.2,3.2,0.7,6.4,1.6,9.5c0,0,0,0,0,0
						c0.5-0.1,1-0.1,1.5-0.2C521.3,705,521.4,705,521.5,705z"/>
				</g>
			</g>
		</g>
		<g>
			<g>
				<path class="st15" d="M311,764.3c-1.7-2.8-4-6.9-6.7-9.7c-2.1-11.9-4.3-32.5-5.1-34.7c-6.1-17-17.8-57.6-24.4-81
					c-2.8-9.9-17.1-8.8-18.5,1.4c-4.8,34.3,29.9,102.5,40.1,121.6c0.1,2.4-0.2,4.8-0.7,7.1c-0.3,1.5-0.8,3.3,0,4.6
					c0.1,0.2,0.2,0.3,0.4,0.4c0.4,0.2,0.8-0.1,1-0.4c0.3-0.3,0.5-0.8,0.6-1.2c0.1,1.2,0.3,2.4,0.7,3.5c0.3,1,1.3,2.2,2.1,1.4
					c0.2-0.2,0.3-0.4,0.3-0.6c0.2-1.4,0.3-2.8,0-4.2c0.2,1,1.1,4.3,1.5,5.2c0.6,1.6,2.9,1.4,3.2-0.3c0.3-1.7-0.6-5.7-1.1-7.3
					c0.6,1.7,1.3,3.3,2.1,4.9c0.6,1.3,2.6,0.8,2.6-0.6c0.1-1.2-0.1-2.4-0.4-3.6c-0.6-2.4-1.8-4.7-2.9-6.9c0.8,1.3,2,2.3,3.4,2.8
					c0.7,0.3,1.5,0,1.9-0.6C311.6,765.5,311.3,764.9,311,764.3z"/>
				<g>
					<g>
						<path class="st5" d="M276.1,919.7l-4.7-1.2c0,0-0.7-75.5-4.1-86.1c-3.4-10.6-16.2-74.4-16.2-74.4s26.8-2.7,31.5-7.5
							c3.8-3.9,24.4-67.7-8.5-118c-3.9-6-6.2-12.8-13.3-14c-17.4-2.9-39.7-2.1-52.9,19.9c-3.6,6-10.5,47.2-7.9,80.6
							c1.1,14.3-4.6,21-3.6,27.6c3.1,22,41.2,103.9,41.2,103.9l15.7,77.4H284C284,927.7,282,922.4,276.1,919.7z"/>
						<path class="st6" d="M282.8,747.5l-64.5,163.3h-19.8c0,0,8-60.9,13.4-77c5.3-16,14.9-82.8,25.6-87.4
							C248.2,741.9,275.3,750.9,282.8,747.5z"/>
						<path class="st6" d="M219.6,905.1l1.5,13.3c0,0,4.7,6.2,9.4,7c4.7,0.8,5.5,4.2,5.5,4.2h-26.6c0,0-11.6,0.3-11.7-3.8
							c-0.1-4.1,0.9-14.9,0.9-14.9S216.4,902.9,219.6,905.1z"/>
						<path class="st16" d="M247.6,736.2c-6.6-2.3-34.5-11.2-47.6-17.3c-2.9,11.7-4.5,21.7-3.6,27.6c3.1,22,41.2,103.9,41.2,103.9
							l15.7,77.4h30.7c0,0-2-5.3-7.9-8l-4.7-1.2c0,0-0.7-75.5-4.1-86.1c-3.4-10.6-16.2-74.4-16.2-74.4s32.9,13.4,35.7-19.9
							C286.8,736,257.7,739.7,247.6,736.2z"/>
						<path class="st16" d="M251.6,851.7c-7.8-19.9-31.2-79.9-36.5-91.2c-4-8.6-2.1-24.4-0.2-34.8c-5.7-2.5-11-5-15-6.8
							c-2.9,11.7-4.5,21.7-3.6,27.6c3.1,22,41.2,103.9,41.2,103.9l0,0C240.9,851,246,851.7,251.6,851.7z"/>
						<path class="st16" d="M276,919.7l-4.7-1.2c0,0,0,0,0-0.1c-5.4,0.6-10.9,0.8-16.3,0.6c-1.2-0.1-2.5-0.2-3.7-0.5l1.9,9.4h30.7
							C283.9,927.7,281.9,922.4,276,919.7z"/>
					</g>
					<g>
						<g>
							<path class="st18" d="M245.8,599.7c-0.4,0.6-7.7,17.3,6.2,25c13.8,7.7,26.3-16.1,15.5-28
								C256.8,584.7,251.2,590.8,245.8,599.7z"/>
							<path class="st18" d="M247.5,604.4c2.5,1.7,3.2,5.1,1.5,7.6c-1.7,2.5-5.1,3.2-7.6,1.5c-2.5-1.7-3.2-5.1-1.5-7.6
								c1.1-1.6,2.8-2.4,4.6-2.4C245.5,603.5,246.5,603.8,247.5,604.4z"/>
						</g>
					</g>
					<path class="st16" d="M244.4,603.5c0,0,6.7-1,4.9,7.9h3.5V600c0,0,21.1,5.2,24.4-1.9c0,0,3.9-3.8-4.7-9.9
						c-8.6-6.1-22.6-3.3-29,1.3c-6.4,4.6-1.8,14.7-1.8,14.7L244.4,603.5z"/>
				</g>
			</g>
		</g>
		<g>
			<path class="st15" d="M164.6,754.4c0.8-3.2,2.1-7.7,2.3-11.6c7.1-9.8,20.3-25.8,21.3-27.8c8-16.2,28.8-53,40.9-74
				c5.1-8.9-5.6-18.4-13.9-12.3c-27.9,20.5-52.5,93-59.1,113.6c-1.7,1.7-3.5,3.2-5.6,4.5c-1.3,0.8-2.9,1.7-3.3,3.3
				c0,0.2-0.1,0.4,0,0.6c0.1,0.4,0.6,0.5,1,0.5c0.5,0,0.9-0.2,1.3-0.4c-0.8,0.9-1.5,1.9-2.1,2.9c-0.5,0.9-0.6,2.5,0.4,2.5
				c0.2,0,0.5-0.1,0.7-0.2c1.2-0.8,2.2-1.8,3-2.9c-0.6,0.8-2.3,3.8-2.7,4.7c-0.7,1.5,1.1,3,2.5,2.1c1.4-1,3.7-4.4,4.4-5.9
				c-0.8,1.6-1.5,3.3-2.1,5c-0.5,1.4,1.2,2.4,2.3,1.5c0.9-0.8,1.7-1.8,2.3-2.8c1.3-2.1,2.1-4.6,2.9-6.9c-0.4,1.5-0.2,3,0.4,4.4
				c0.3,0.7,1,1.1,1.8,1C164.2,755.7,164.4,755,164.6,754.4z"/>
			<path class="st5" d="M215.1,628.6c-11.9,8.8-23.2,26.9-32.7,46.5c6.4,5.4,12.1,11.5,17.2,18.1c9.4-17.3,21.4-38.3,29.4-52.4
				C234.1,632,223.4,622.5,215.1,628.6z"/>
		</g>
	</g>
</g>
</svg>
